<svg width="120" height="80" viewBox="0 0 120 80" fill="none" xmlns="http://www.w3.org/2000/svg">
  <!-- Laptop base -->
  <path d="M8 62 L112 62 L118 72 L2 72 Z" fill="#4A5568"/>
  
  <!-- Laptop screen frame -->
  <rect x="18" y="12" width="84" height="52" rx="2" fill="#2D3748"/>
  
  <!-- Screen -->
  <rect x="22" y="16" width="76" height="44" rx="1" fill="#4C51BF"/>
  
  <!-- URL bar -->
  <rect x="25" y="19" width="70" height="4" rx="2" fill="#667EEA"/>
  <text x="27" y="22" font-family="Arial, sans-serif" font-size="2.5" fill="white">www.etagency.cl</text>
  
  <!-- Website header -->
  <rect x="25" y="26" width="70" height="3" rx="1" fill="#E2E8F0"/>
  
  <!-- Navigation dots -->
  <circle cx="29" cy="31" r="1.5" fill="#48BB78"/>
  <circle cx="33" cy="31" r="1.5" fill="#ED8936"/>
  <circle cx="37" cy="31" r="1.5" fill="#ECC94B"/>
  
  <!-- Content sections -->
  <rect x="25" y="35" width="32" height="10" rx="1" fill="#F7FAFC"/>
  <rect x="59" y="35" width="34" height="10" rx="1" fill="#F7FAFC"/>
  
  <!-- Text lines in left section -->
  <rect x="27" y="37" width="28" height="1" rx="0.5" fill="#4A5568"/>
  <rect x="27" y="39" width="22" height="1" rx="0.5" fill="#4A5568"/>
  <rect x="27" y="41" width="26" height="1" rx="0.5" fill="#4A5568"/>
  
  <!-- Text lines in right section -->
  <rect x="61" y="37" width="30" height="1" rx="0.5" fill="#4A5568"/>
  <rect x="61" y="39" width="24" height="1" rx="0.5" fill="#4A5568"/>
  <rect x="61" y="41" width="28" height="1" rx="0.5" fill="#4A5568"/>
  
  <!-- Bottom section -->
  <rect x="25" y="47" width="70" height="10" rx="1" fill="#F7FAFC"/>
  
  <!-- Icons in bottom section -->
  <circle cx="33" cy="52" r="2.5" fill="#4299E1"/>
  <rect x="42" y="49" width="10" height="6" rx="1" fill="#48BB78"/>
  <circle cx="62" cy="52" r="2.5" fill="#ED64A6"/>
  <rect x="72" y="49" width="10" height="6" rx="1" fill="#F56565"/>
  
  <!-- Floating elements -->
  <circle cx="12" cy="22" r="3" fill="#48BB78" opacity="0.7"/>
  <circle cx="108" cy="28" r="2.5" fill="#ED8936" opacity="0.7"/>
  <circle cx="110" cy="45" r="2" fill="#4299E1" opacity="0.7"/>
  <circle cx="6" cy="48" r="2.5" fill="#ECC94B" opacity="0.7"/>
</svg>