<svg width="200" height="60" viewBox="0 0 200 60" fill="none" xmlns="http://www.w3.org/2000/svg">
  <!-- Laptop illustration -->
  <g transform="translate(10, 5)">
    <!-- Laptop base -->
    <path d="M5 35 L35 35 L37 40 L3 40 Z" fill="#E5E7EB" stroke="#9CA3AF" stroke-width="0.5"/>
    <!-- Laptop screen -->
    <rect x="8" y="15" width="24" height="20" rx="1" fill="#1F2937" stroke="#374151" stroke-width="0.5"/>
    <!-- Screen content -->
    <rect x="10" y="17" width="20" height="16" rx="0.5" fill="#3B82F6"/>
    <!-- Website elements -->
    <rect x="11" y="18" width="6" height="2" rx="0.5" fill="white" opacity="0.9"/>
    <rect x="11" y="21" width="18" height="1" rx="0.5" fill="white" opacity="0.7"/>
    <rect x="11" y="23" width="15" height="1" rx="0.5" fill="white" opacity="0.7"/>
    <rect x="11" y="25" width="12" height="1" rx="0.5" fill="white" opacity="0.7"/>
    <!-- Icons -->
    <circle cx="25" cy="19" r="1.5" fill="#10B981" opacity="0.8"/>
    <rect x="22" y="22" width="6" height="4" rx="1" fill="#F59E0B" opacity="0.8"/>
    <circle cx="14" cy="29" r="2" fill="#EF4444" opacity="0.8"/>
  </g>
  
  <!-- ET AGENCY Text -->
  <g transform="translate(50, 20)">
    <!-- ET -->
    <text x="0" y="0" font-family="Arial, sans-serif" font-size="16" font-weight="bold" fill="#1F2937">
      <tspan>ET</tspan>
    </text>
    <!-- AGENCY -->
    <text x="30" y="0" font-family="Arial, sans-serif" font-size="16" font-weight="bold" fill="#3B82F6">
      <tspan>AGENCY</tspan>
    </text>
  </g>
  
  <!-- Decorative elements -->
  <circle cx="180" cy="15" r="3" fill="#10B981" opacity="0.6"/>
  <circle cx="185" cy="25" r="2" fill="#F59E0B" opacity="0.6"/>
  <circle cx="190" cy="35" r="2.5" fill="#EF4444" opacity="0.6"/>
</svg>