<svg width="600" height="400" viewBox="0 0 600 400" xmlns="http://www.w3.org/2000/svg">
  <defs>
    <linearGradient id="seoGradient" x1="0%" y1="0%" x2="100%" y2="100%">
      <stop offset="0%" style="stop-color:#10B981;stop-opacity:1" />
      <stop offset="100%" style="stop-color:#047857;stop-opacity:1" />
    </linearGradient>
  </defs>
  
  <!-- Background -->
  <rect width="600" height="400" fill="url(#seoGradient)"/>
  
  <!-- Map of Chile outline -->
  <path d="M 250 80 L 260 90 L 270 120 L 275 150 L 280 180 L 285 210 L 290 240 L 295 270 L 300 300 L 290 320 L 280 310 L 270 300 L 260 290 L 250 280 L 240 270 L 235 240 L 230 210 L 235 180 L 240 150 L 245 120 L 250 90 Z" fill="rgba(255,255,255,0.3)" stroke="rgba(255,255,255,0.6)" stroke-width="2"/>
  
  <!-- Location pins -->
  <circle cx="270" cy="200" r="8" fill="white"/>
  <circle cx="280" cy="250" r="6" fill="white"/>
  <circle cx="260" cy="180" r="6" fill="white"/>
  
  <!-- Search elements -->
  <circle cx="450" cy="150" r="40" fill="rgba(255,255,255,0.2)" stroke="rgba(255,255,255,0.5)" stroke-width="3"/>
  <path d="M 480 180 L 500 200" stroke="rgba(255,255,255,0.8)" stroke-width="4"/>
  
  <!-- SEO text elements -->
  <rect x="80" y="120" width="100" height="20" fill="rgba(255,255,255,0.2)" rx="3"/>
  <rect x="80" y="150" width="80" height="15" fill="rgba(255,255,255,0.15)" rx="3"/>
  <rect x="80" y="170" width="120" height="15" fill="rgba(255,255,255,0.1)" rx="3"/>
  
  <!-- Title -->
  <text x="300" y="350" text-anchor="middle" fill="white" font-family="Arial, sans-serif" font-size="26" font-weight="bold">SEO Local Chile</text>
</svg>